<svg width="1200" height="1200" viewBox="0 0 1200 1200" fill="none" xmlns="http://www.w3.org/2000/svg">
<mask id="path-2-inside-1_2540_244" fill="white">
<path fill-rule="evenodd" clip-rule="evenodd" d="M1007.84 79.9472C1044.44 101.079 1066.99 140.131 1066.99 182.394V875.836C1066.99 969.022 964.249 1025.62 885.482 975.827L778.277 908.055C743.983 886.376 723.192 848.635 723.192 808.064V120.499C723.192 29.4351 821.772 -27.4798 900.635 18.0522L1007.84 79.9472Z"/>
</mask>
<path fill-rule="evenodd" clip-rule="evenodd" d="M1007.84 79.9472C1044.44 101.079 1066.99 140.131 1066.99 182.394V875.836C1066.99 969.022 964.249 1025.62 885.482 975.827L778.277 908.055C743.983 886.376 723.192 848.635 723.192 808.064V120.499C723.192 29.4351 821.772 -27.4798 900.635 18.0522L1007.84 79.9472Z" fill="white"/>
<path d="M778.277 908.055L782.227 901.806L778.277 908.055ZM1007.84 79.9472L1011.54 73.5443L1007.84 79.9472ZM885.482 975.827L889.433 969.577L885.482 975.827ZM1074.38 875.836V182.394H1059.59V875.836H1074.38ZM774.326 914.305L881.531 982.076L889.433 969.577L782.227 901.806L774.326 914.305ZM715.799 120.499V808.064H730.585V120.499H715.799ZM1011.54 73.5443L904.332 11.6493L896.939 24.4551L1004.14 86.3501L1011.54 73.5443ZM730.585 120.499C730.585 35.1266 823.004 -18.2311 896.939 24.4551L904.332 11.6493C820.539 -36.7284 715.799 23.7436 715.799 120.499H730.585ZM782.227 901.806C750.077 881.482 730.585 846.1 730.585 808.064H715.799C715.799 851.171 737.889 891.271 774.326 914.305L782.227 901.806ZM1074.38 182.394C1074.38 137.49 1050.43 95.9964 1011.54 73.5443L1004.14 86.3501C1038.46 106.161 1059.59 142.773 1059.59 182.394H1074.38ZM1059.59 875.836C1059.59 963.198 963.277 1016.26 889.433 969.577L881.531 982.076C965.221 1034.98 1074.38 974.846 1074.38 875.836H1059.59Z" fill="white" mask="url(#path-2-inside-1_2540_244)"/>
<mask id="path-4-inside-2_2540_244" fill="white">
<path fill-rule="evenodd" clip-rule="evenodd" d="M192.148 633.122C155.547 654.253 133 693.306 133 735.569V846.89C133 942.829 241.198 998.864 319.554 943.506L469.272 837.731C500.65 815.562 519.309 779.535 519.309 741.116V649.129C519.309 558.065 420.729 501.15 341.866 546.682L192.148 633.122Z"/>
</mask>
<path d="M469.272 837.731L443.675 801.5L469.272 837.731ZM319.554 943.506L293.957 907.275L319.554 943.506ZM88.6392 846.89V735.569H177.361V846.89H88.6392ZM494.869 873.962L345.151 979.737L293.957 907.275L443.675 801.5L494.869 873.962ZM563.67 649.129V741.116H474.948V649.129H563.67ZM169.967 594.704L319.685 508.265L364.046 585.1L214.328 671.539L169.967 594.704ZM474.948 649.129C474.948 592.214 413.336 556.642 364.046 585.1L319.685 508.265C428.123 445.658 563.67 523.916 563.67 649.129H474.948ZM443.675 801.5C463.287 787.645 474.948 765.128 474.948 741.116H563.67C563.67 793.943 538.014 843.48 494.869 873.962L443.675 801.5ZM88.6392 735.569C88.6392 677.457 119.641 623.76 169.967 594.704L214.328 671.539C191.453 684.747 177.361 709.154 177.361 735.569H88.6392ZM177.361 846.89C177.361 906.852 244.985 941.874 293.957 907.275L345.151 979.737C237.411 1055.85 88.6392 978.806 88.6392 846.89H177.361Z" fill="white" mask="url(#path-4-inside-2_2540_244)"/>
<mask id="path-6-inside-3_2540_244" fill="white">
<path fill-rule="evenodd" clip-rule="evenodd" d="M672.964 840.254C713.539 860.109 739.264 901.337 739.264 946.51V1080.06C739.264 1167.55 647.565 1224.77 568.974 1186.31L199.3 1005.42C158.725 985.561 133 944.332 133 899.16V765.614C133 678.117 224.699 620.9 303.29 659.358L672.964 840.254Z"/>
</mask>
<path d="M672.964 840.254L692.462 800.408L692.462 800.408L672.964 840.254ZM783.625 1080.06V946.51H694.903V1080.06H783.625ZM179.802 1045.26L549.475 1226.16L588.472 1146.47L218.798 965.57L179.802 1045.26ZM88.639 765.614V899.16H177.361V765.614H88.639ZM692.462 800.408L322.789 619.512L283.792 699.204L653.466 880.1L692.462 800.408ZM177.361 765.614C177.361 710.928 234.673 675.168 283.792 699.204L322.789 619.512C214.725 566.632 88.639 645.306 88.639 765.614H177.361ZM218.798 965.57C193.439 953.16 177.361 927.392 177.361 899.16H88.639C88.639 961.271 124.011 1017.96 179.802 1045.26L218.798 965.57ZM783.625 946.51C783.625 884.398 748.252 827.708 692.462 800.408L653.466 880.1C678.825 892.509 694.903 918.277 694.903 946.51H783.625ZM694.903 1080.06C694.903 1134.74 637.591 1170.5 588.472 1146.47L549.475 1226.16C657.539 1279.04 783.625 1200.36 783.625 1080.06H694.903Z" fill="white" mask="url(#path-6-inside-3_2540_244)"/>
</svg>
