<svg width="120" height="120" viewBox="0 0 120 120" fill="none" xmlns="http://www.w3.org/2000/svg">
<g clip-path="url(#clip0_2655_384)">
<path fill-rule="evenodd" clip-rule="evenodd" d="M104.425 5.10797C109.317 7.93206 112.33 13.1512 112.33 18.7994V85.3739C112.33 97.8277 98.5996 105.392 88.0729 98.7371L82.9348 95.489C78.3517 92.5917 75.5731 87.5479 75.5731 82.1258V15.8329C75.5731 3.66277 88.7476 -3.94357 99.2873 2.1415L104.425 5.10797Z" fill="white"/>
<path fill-rule="evenodd" clip-rule="evenodd" d="M13.6873 42.7795C9.54919 45.1686 7 49.5839 7 54.3622V54.3622C7 65.2091 19.233 71.5445 28.092 65.2857L31.4606 62.9058C34.9582 60.4347 37.038 56.419 37.038 52.1365V52.1365C37.038 41.986 26.0498 35.642 17.2592 40.7172L13.6873 42.7795Z" fill="white"/>
<path fill-rule="evenodd" clip-rule="evenodd" d="M65.6924 84.5468C70.5839 87.3708 73.5972 92.59 73.5972 98.2382V104.167C73.5972 116.337 60.4226 123.943 49.8829 117.858L26.564 104.395C21.6725 101.571 18.6593 96.3519 18.6593 90.7037V84.7749C18.6593 72.6048 31.8338 64.9985 42.3735 71.0836L65.6924 84.5468Z" fill="white"/>
</g>
<defs>
<clipPath id="clip0_2655_384">
<rect width="120" height="120" rx="8" fill="white"/>
</clipPath>
</defs>
</svg>
