<svg width="120" height="120" viewBox="0 0 120 120" fill="none" xmlns="http://www.w3.org/2000/svg">
<rect width="120" height="120" rx="8" fill="black"/>
<mask id="path-2-inside-1_2541_246" fill="white">
<path fill-rule="evenodd" clip-rule="evenodd" d="M89.1054 22.2563C91.7622 23.7902 93.3989 26.6251 93.3989 29.693V80.0303C93.3989 86.7948 85.941 90.9033 80.2233 87.2888L72.4412 82.3692C69.9518 80.7955 68.4425 78.0559 68.4425 75.1108V25.2C68.4425 18.5896 75.5985 14.4581 81.3233 17.7633L89.1054 22.2563Z"/>
</mask>
<path fill-rule="evenodd" clip-rule="evenodd" d="M89.1054 22.2563C91.7622 23.7902 93.3989 26.6251 93.3989 29.693V80.0303C93.3989 86.7948 85.941 90.9033 80.2233 87.2888L72.4412 82.3692C69.9518 80.7955 68.4425 78.0559 68.4425 75.1108V25.2C68.4425 18.5896 75.5985 14.4581 81.3233 17.7633L89.1054 22.2563Z" fill="white"/>
<path d="M81.3233 17.7633L81.5916 17.2985L81.3233 17.7633ZM89.1054 22.2563L88.837 22.7211L89.1054 22.2563ZM93.9356 80.0303V29.693H92.8622V80.0303H93.9356ZM72.1544 82.8228L79.9365 87.7424L80.51 86.8351L72.7279 81.9155L72.1544 82.8228ZM67.9058 25.2V75.1108H68.9792V25.2H67.9058ZM89.3737 21.7915L81.5916 17.2985L81.0549 18.2281L88.837 22.7211L89.3737 21.7915ZM68.9792 25.2C68.9792 19.0028 75.6879 15.1295 81.0549 18.2281L81.5916 17.2985C75.509 13.7867 67.9058 18.1765 67.9058 25.2H68.9792ZM72.7279 81.9155C70.3942 80.4402 68.9792 77.8718 68.9792 75.1108H67.9058C67.9058 78.2399 69.5094 81.1508 72.1544 82.8228L72.7279 81.9155ZM93.9356 29.693C93.9356 26.4333 92.1966 23.4213 89.3737 21.7915L88.837 22.7211C91.3278 24.1592 92.8622 26.8168 92.8622 29.693H93.9356ZM92.8622 80.0303C92.8622 86.372 85.8705 90.2238 80.51 86.8351L79.9365 87.7424C86.0116 91.5829 93.9356 87.2176 93.9356 80.0303H92.8622Z" fill="white" mask="url(#path-2-inside-1_2541_246)"/>
<mask id="path-4-inside-2_2541_246" fill="white">
<path fill-rule="evenodd" clip-rule="evenodd" d="M29.8937 62.4115C27.2368 63.9454 25.6001 66.7803 25.6001 69.8482V77.9291C25.6001 84.8933 33.4543 88.9609 39.1422 84.9425L50.0103 77.2642C52.2881 75.655 53.6425 73.0397 53.6425 70.2508V63.5735C53.6425 56.9631 46.4865 52.8316 40.7618 56.1368L29.8937 62.4115Z"/>
</mask>
<path d="M21.6001 77.9291V69.8482H29.6001V77.9291H21.6001ZM52.3184 80.5311L41.4503 88.2094L36.8341 81.6755L47.7022 73.9973L52.3184 80.5311ZM57.6425 63.5735V70.2508H49.6425V63.5735H57.6425ZM27.8937 58.9474L38.7618 52.6727L42.7618 59.6009L31.8937 65.8756L27.8937 58.9474ZM49.6425 63.5735C49.6425 60.0423 45.8199 57.8353 42.7618 59.6009L38.7618 52.6727C47.1532 47.8279 57.6425 53.8839 57.6425 63.5735H49.6425ZM47.7022 73.9973C48.919 73.1376 49.6425 71.7406 49.6425 70.2508H57.6425C57.6425 74.3389 55.6572 78.1723 52.3184 80.5311L47.7022 73.9973ZM21.6001 69.8482C21.6001 65.3512 23.9992 61.1958 27.8937 58.9474L31.8937 65.8756C30.4744 66.695 29.6001 68.2093 29.6001 69.8482H21.6001ZM29.6001 77.9291C29.6001 81.6493 33.7957 83.8222 36.8341 81.6755L41.4503 88.2094C33.1129 94.0997 21.6001 88.1373 21.6001 77.9291H29.6001Z" fill="white" mask="url(#path-4-inside-2_2541_246)"/>
<mask id="path-6-inside-3_2541_246" fill="white">
<path fill-rule="evenodd" clip-rule="evenodd" d="M62.8833 76.5114C66.9993 78.5255 69.6089 82.7078 69.6089 87.2901V89.3852C69.6089 98.2609 60.3069 104.065 52.3345 100.164L32.3253 90.3726C28.2094 88.3585 25.5998 84.1762 25.5998 79.5939V77.4989C25.5998 68.6231 34.9018 62.8189 42.8742 66.7202L62.8833 76.5114Z"/>
</mask>
<path d="M52.3345 100.164L54.0926 96.571L52.3345 100.164ZM73.6089 89.3852V87.2901H65.6089V89.3852H73.6089ZM30.5672 93.9655L50.5763 103.757L54.0926 96.571L34.0835 86.7797L30.5672 93.9655ZM21.5998 77.4989V79.5939H29.5998V77.4989H21.5998ZM64.6415 72.9185L44.6323 63.1273L41.116 70.3131L61.1252 80.1043L64.6415 72.9185ZM29.5998 77.4989C29.5998 71.5817 35.8011 67.7123 41.116 70.3131L44.6323 63.1273C34.0025 57.9256 21.5998 65.6646 21.5998 77.4989H29.5998ZM34.0835 86.7797C31.3395 85.437 29.5998 82.6488 29.5998 79.5939H21.5998C21.5998 85.7037 25.0793 91.2801 30.5672 93.9655L34.0835 86.7797ZM73.6089 87.2901C73.6089 81.1804 70.1294 75.604 64.6415 72.9185L61.1252 80.1043C63.8691 81.447 65.6089 84.2352 65.6089 87.2901H73.6089ZM65.6089 89.3852C65.6089 95.3024 59.4075 99.1718 54.0926 96.571L50.5763 103.757C61.2062 108.958 73.6089 101.219 73.6089 89.3852H65.6089Z" fill="white" mask="url(#path-6-inside-3_2541_246)"/>
</svg>
