<svg width="144" height="144" viewBox="0 0 144 144" fill="none" xmlns="http://www.w3.org/2000/svg">
<path d="M81.7701 122.828L78.5181 128.324C75.6201 133.22 68.3781 133.22 65.4741 128.324L62.2221 122.828C59.7021 118.568 58.4421 116.432 56.4141 115.256C54.3861 114.074 51.8361 114.032 46.7361 113.942C39.2001 113.816 34.4781 113.354 30.5181 111.71C26.8783 110.202 23.5711 107.993 20.7853 105.207C17.9995 102.421 15.7897 99.1139 14.2821 95.4741C11.9961 89.9661 11.9961 82.9761 11.9961 68.9961V62.9961C11.9961 43.3581 11.9961 33.5361 16.4181 26.3241C18.8903 22.2873 22.2828 18.8928 26.3181 16.4181C33.5361 11.9961 43.3641 11.9961 62.9961 11.9961H80.9961C100.634 11.9961 110.456 11.9961 117.674 16.4181C121.709 18.8911 125.101 22.2835 127.574 26.3181C131.996 33.5361 131.996 43.3641 131.996 62.9961V68.9961C131.996 82.9761 131.996 89.9661 129.716 95.4741C128.208 99.1144 125.997 102.422 123.21 105.208C120.423 107.994 117.115 110.203 113.474 111.71C109.514 113.354 104.792 113.81 97.2561 113.942C92.1561 114.032 89.6061 114.074 87.5781 115.256C85.5501 116.432 84.2901 118.562 81.7701 122.828Z" fill="white"/>
<path d="M102 81H72M42 51L43.404 52.17C51.096 58.578 54.942 61.782 54.942 66C54.942 70.218 51.102 73.422 43.404 79.83L42 81" stroke="black" stroke-width="9" stroke-linecap="round"/>
</svg>
