<svg width="120" height="120" viewBox="0 0 120 120" fill="none" xmlns="http://www.w3.org/2000/svg">
<path fill-rule="evenodd" clip-rule="evenodd" d="M66.5181 116.324L69.7701 110.828C72.2901 106.562 73.5501 104.432 75.5781 103.256C77.6008 102.077 80.1428 102.032 85.2163 101.943L85.2561 101.942C92.7921 101.81 97.5141 101.354 101.474 99.7101C105.115 98.2031 108.423 95.9936 111.21 93.2078C113.997 90.422 116.208 87.1144 117.716 83.4741C119.996 77.9661 119.996 70.9761 119.996 56.9962V56.9961V50.9961V50.996C119.996 31.3641 119.996 21.5361 115.574 14.3181C113.101 10.2835 109.709 6.89109 105.674 4.41809C98.4561 -0.00390625 88.6341 -0.00390625 68.9961 -0.00390625H50.9961C31.3641 -0.00390625 21.5361 -0.00390625 14.3181 4.41809C10.2828 6.89279 6.89034 10.2873 4.41809 14.3241C-0.00390625 21.5361 -0.00390625 31.3581 -0.00390625 50.9961V56.9961C-0.00390625 70.9761 -0.00390625 77.9661 2.28209 83.4741C3.78974 87.1139 5.99953 90.4211 8.78531 93.2069C11.5711 95.9927 14.8783 98.2025 18.5181 99.7101C22.4781 101.354 27.2001 101.816 34.7361 101.942L34.7759 101.943C39.8494 102.032 42.3914 102.077 44.4141 103.256C46.4367 104.429 47.6954 106.557 50.2021 110.794L50.2221 110.828L53.4741 116.324C56.3781 121.22 63.6201 121.22 66.5181 116.324ZM40.4022 39.7443L54.5668 28.5326L54.6091 28.4992C63.7405 21.2775 68.3071 17.6659 71.1848 19.4515C74.0586 21.2389 72.5641 26.7809 69.5794 37.8491L69.5751 37.8652L69.2939 38.913L69.2857 38.9434C68.2156 42.9188 67.6795 44.9106 68.6261 46.4992L68.6753 46.583C69.6587 48.1537 71.7512 48.7128 75.9279 49.8289L75.9369 49.8313C83.4726 51.8361 87.2334 52.842 87.9012 55.4476L87.9294 55.5803C88.5055 58.2057 85.542 60.5518 79.6004 65.2557L79.5922 65.2622L65.4276 76.4669L65.4183 76.4742C56.2649 83.7203 51.6978 87.3357 48.8166 85.548C45.9415 83.7597 47.4318 78.2203 50.4264 67.1413L50.7076 66.0935L50.7158 66.0631C51.7859 62.0877 52.322 60.0959 51.3754 58.5003L51.3262 58.4164C50.3428 56.8458 48.2502 56.2867 44.0736 55.1706L44.0646 55.1682C36.5289 53.1634 32.761 52.1575 32.1002 49.5519L32.0721 49.4192C31.4887 46.7996 34.4622 44.4455 40.4022 39.7443Z" fill="white"/>
</svg>
